<?xml version="1.0" encoding="utf-8"?>
<!-- Generator: Adobe Illustrator 24.2.3, SVG Export Plug-In . SVG Version: 6.00 Build 0)  -->
<svg version="1.1" id="Layer_1" xmlns="http://www.w3.org/2000/svg" xmlns:xlink="http://www.w3.org/1999/xlink" x="0px" y="0px"
	 viewBox="0 0 1078.1 194.6" style="enable-background:new 0 0 1078.1 194.6;" xml:space="preserve">
<style type="text/css">
	.st0{fill:#004AAD;}
	.st1{fill:#CCD8E5;}
	.st2{fill:#CAD0D8;}
	.st3{fill:#00C2CB;}
	.st4{fill:#F3F8F9;}
</style>
<g>
	<g transform="translate(48.112179, 278.660752)">
	</g>
</g>
<g>
	<g transform="translate(68.761253, 278.660752)">
	</g>
</g>
<g>
	<g transform="translate(88.96153, 278.660752)">
	</g>
</g>
<g>
	<g transform="translate(112.231606, 278.660752)">
	</g>
</g>
<g>
	<g transform="translate(137.572638, 278.660752)">
	</g>
</g>
<g>
	<g transform="translate(146.191736, 278.660752)">
	</g>
</g>
<g>
	<g transform="translate(154.810835, 278.660752)">
	</g>
</g>
<g>
	<g transform="translate(163.429933, 278.660752)">
	</g>
</g>
<g>
	<g transform="translate(183.807768, 278.660752)">
	</g>
</g>
<g>
	<g transform="translate(204.456842, 278.660752)">
	</g>
</g>
<g>
	<g transform="translate(225.859906, 278.660752)">
	</g>
</g>
<g>
	<g transform="translate(249.399265, 278.660752)">
	</g>
</g>
<g>
	<g transform="translate(263.765155, 278.660752)">
	</g>
</g>
<g>
	<g transform="translate(287.035231, 278.660752)">
	</g>
</g>
<g>
	<g transform="translate(307.684309, 278.660752)">
	</g>
</g>
<g>
	<path class="st0" d="M213.4,3.9c-1.7-1.4-3.5-2.4-5.6-3.1s-4.1-0.9-6.3-0.8H15.2C13-0.1,10.9,0.2,8.9,0.8S5,2.5,3.3,3.9L2.7,4.5
		l104.4,104.4h2.4L214,4.5L213.4,3.9z"/>
	<path class="st1" d="M72.2,143.7l34.8-34.8h2.4l34.9,34.8l-0.4,0.8l-23.4,41.2c-6.7,11.8-17.6,11.8-24.4,0l-23.4-41.2L72.2,143.7z"
		/>
	<path class="st2" d="M72.7,144.5l35.6-35.6L3.3,3.9c-4.1,3.9-4.5,10.3-0.5,17.5L72.7,144.5z"/>
	<path class="st3" d="M143.9,144.5l69.9-123.1c4.1-7.2,3.6-13.5-0.5-17.5l-105,105L143.9,144.5z"/>
	<g>
		<g transform="translate(35.794968, 357.443588)">
			<g>
				<path class="st4" d="M216.4-354.7h24.6l37.5,96.3l37.7-96.3h24.4l-50.8,127.3h-22.4L216.4-354.7z"/>
			</g>
		</g>
	</g>
	<g>
		<g transform="translate(90.688347, 357.443588)">
			<g>
				<path class="st4" d="M322.1-354.7h23.1v127.3h-23.1V-354.7z"/>
			</g>
		</g>
	</g>
	<g>
		<g transform="translate(112.786794, 357.443588)">
			<g>
				<path class="st4" d="M359.5-354.7h24.6l37.5,96.3l37.7-96.3h24.4l-50.8,127.3h-22.4L359.5-354.7z"/>
			</g>
		</g>
	</g>
	<g>
		<g transform="translate(167.680173, 357.443588)">
			<g>
				<path class="st4" d="M529.7-224.7c-13.3,0-25.2-2.7-35.5-8.1c-10.3-5.4-18.3-13.1-24-23.1c-5.7-10-8.5-21.7-8.5-35.1
					c0-13.3,2.8-25,8.5-35c5.7-10,13.7-17.7,24-23.2c10.3-5.5,22.2-8.2,35.5-8.2c17.6,0,32.3,4.2,44.1,12.6v22
					c-10.6-9-24.6-13.4-42.1-13.4c-9.4,0-17.5,1.9-24.6,5.5c-7,3.7-12.5,9-16.4,15.8c-3.9,6.8-5.8,14.8-5.8,24
					c0,9.2,2,17.3,5.9,24.1c4,6.8,9.4,12,16.5,15.7c7.1,3.7,15.2,5.5,24.4,5.5c9,0,17-1.1,24-3.4c7.1-2.2,13.5-5.9,19.5-10.9v22.1
					C564.1-229.1,548.9-224.7,529.7-224.7z"/>
			</g>
		</g>
	</g>
	<g>
		<g transform="translate(218.880146, 357.443588)">
			<g>
				<path class="st4" d="M624.4-224.7c-12.8,0-24.3-2.7-34.5-8.3c-10.3-5.5-18.3-13.3-24.2-23.4c-5.9-10.1-8.8-21.6-8.8-34.6
					c0-13,2.9-24.5,8.8-34.6c5.9-10.1,14-17.9,24.2-23.5c10.3-5.6,21.8-8.4,34.5-8.4c12.6,0,24.1,2.8,34.3,8.4
					c10.3,5.6,18.3,13.4,24.2,23.5c5.9,10.1,8.8,21.6,8.8,34.6c0,13-2.9,24.5-8.8,34.5c-5.9,10-13.9,17.8-24.2,23.4
					C648.4-227.5,637-224.7,624.4-224.7z M624.4-245.7c8.1,0,15.5-1.8,22.2-5.5c6.7-3.7,12-9,16-15.8c4-6.9,5.9-14.9,5.9-24
					c0-9-2-16.9-5.9-23.7c-3.9-6.9-9.2-12.2-15.9-16c-6.7-3.8-14.1-5.6-22.4-5.6c-8.3,0-15.7,1.9-22.5,5.6c-6.7,3.8-12.1,9.1-16,16
					c-3.9,6.9-5.8,14.8-5.8,23.7c0,9.1,2,17.1,5.9,24c4,6.9,9.3,12.1,16,15.8C608.8-247.5,616.2-245.7,624.4-245.7z"/>
			</g>
		</g>
	</g>
	<g>
		<g transform="translate(277.530634, 357.443588)">
			<g>
				<path class="st4" d="M669.5-354.7h22.6l42.6,93.2l42.6-93.2h22.6v127.3h-21.8v-82.7l-37.9,82.7h-10.9l-37.8-82.7v82.7h-21.8
					V-354.7z"/>
			</g>
		</g>
	</g>
	<g>
		<g transform="translate(35.794968, 278.660752)">
			<g>
				<path class="st3" d="M235.6-117.1h-11.4v-3.4h26.8v3.4h-11.4v32.2h-4V-117.1z"/>
			</g>
		</g>
	</g>
	<g>
		<g transform="translate(56.731278, 278.660752)">
			<g>
				<path class="st3" d="M264.5-120.5h22.9v3.4h-18.9v12.7h14.2v3.3h-14.2v12.8h18.9v3.4h-22.9V-120.5z"/>
			</g>
		</g>
	</g>
	<g>
		<g transform="translate(77.380352, 278.660752)">
			<g>
				<path class="st3" d="M302.3-120.5h4v32.2h18.9v3.4h-22.9V-120.5z"/>
			</g>
		</g>
	</g>
	<g>
		<g transform="translate(97.58063, 278.660752)">
			<g>
				<path class="st3" d="M357-84.2c-3.6,0-6.8-0.8-9.6-2.3c-2.8-1.5-5.1-3.7-6.7-6.5c-1.6-2.8-2.4-6-2.4-9.7c0-3.7,0.8-7,2.4-9.7
					c1.6-2.8,3.8-5,6.7-6.5c2.8-1.6,6-2.3,9.6-2.3c4.9,0,9,1.3,12.2,3.8v3.9c-3.1-2.7-7.1-4.1-11.9-4.1c-2.9,0-5.4,0.6-7.7,1.8
					c-2.3,1.2-4.1,3-5.4,5.2c-1.3,2.2-1.9,4.9-1.9,7.9c0,3,0.6,5.6,1.9,7.9c1.3,2.2,3.1,4,5.4,5.2c2.3,1.2,4.8,1.8,7.7,1.8
					c2.6,0,4.8-0.3,6.8-1c2-0.7,3.9-1.8,5.6-3.4v3.9C366.6-85.5,362.4-84.2,357-84.2z"/>
			</g>
		</g>
	</g>
	<g>
		<g transform="translate(120.850706, 278.660752)">
			<g>
				<path class="st3" d="M399.5-84.2c-3.5,0-6.6-0.8-9.5-2.3c-2.8-1.5-5.1-3.7-6.7-6.5c-1.6-2.8-2.4-6.1-2.4-9.7s0.8-6.8,2.4-9.6
					c1.6-2.8,3.9-5,6.7-6.6c2.8-1.6,6-2.3,9.5-2.3c3.5,0,6.7,0.8,9.5,2.3c2.8,1.6,5.1,3.8,6.7,6.6c1.6,2.8,2.4,6,2.4,9.6
					s-0.8,6.9-2.4,9.7c-1.6,2.8-3.8,5-6.7,6.5C406.2-84.9,403-84.2,399.5-84.2z M399.5-87.7c2.7,0,5.2-0.6,7.4-1.8
					c2.2-1.2,4-3,5.3-5.2c1.3-2.3,1.9-4.9,1.9-7.9s-0.7-5.6-1.9-7.9c-1.3-2.2-3-4-5.2-5.2c-2.2-1.2-4.7-1.9-7.4-1.9
					c-2.7,0-5.2,0.6-7.5,1.8c-2.2,1.2-4,3-5.4,5.2c-1.3,2.3-1.9,4.9-1.9,7.9s0.6,5.6,1.9,7.9c1.3,2.2,3.1,4,5.3,5.2
					C394.3-88.3,396.8-87.7,399.5-87.7z"/>
			</g>
		</g>
	</g>
	<g>
		<g transform="translate(172.04706, 278.660752)">
			<g>
				<path class="st3" d="M485.1-84.2c-1.9,0-3.9-0.2-5.8-0.5c-1.9-0.3-3.4-0.8-4.7-1.3v-3.8c3.2,1.4,6.6,2.1,10.3,2.1
					c3,0,5.3-0.5,6.7-1.5c1.4-1,2.2-2.5,2.2-4.5c0-1.4-0.3-2.5-0.9-3.3c-0.6-0.8-1.4-1.5-2.6-2.1c-1.1-0.6-3.1-1.4-5.8-2.5
					c-3.4-1.3-5.8-2.8-7.3-4.4c-1.5-1.6-2.3-3.7-2.3-6.1c0-1.8,0.5-3.4,1.4-4.8c1-1.4,2.3-2.5,4.1-3.2c1.8-0.8,3.8-1.1,6.1-1.1
					c1.9,0,3.5,0.2,5,0.4c1.5,0.3,3,0.7,4.5,1.4v3.6c-2.9-1.3-5.8-1.9-8.9-1.9c-2.7,0-4.8,0.5-6.2,1.5c-1.4,1-2.1,2.3-2.1,4.1
					c0,1.2,0.3,2.2,0.8,3.1c0.6,0.9,1.5,1.6,2.7,2.3c1.2,0.7,2.9,1.5,5.1,2.3c2.4,1,4.4,1.8,5.7,2.7c1.4,0.8,2.5,1.9,3.2,3.2
					c0.8,1.3,1.1,2.9,1.1,4.9c0,3-1.1,5.4-3.2,7C492.4-85,489.3-84.2,485.1-84.2z"/>
			</g>
		</g>
	</g>
	<g>
		<g transform="translate(192.426867, 278.660752)">
			<g>
				<path class="st3" d="M512.9-120.5h22.9v3.4h-18.9v12.7h14.2v3.3h-14.2v12.8h18.9v3.4h-22.9V-120.5z"/>
			</g>
		</g>
	</g>
	<g>
		<g transform="translate(213.075941, 278.660752)">
			<g>
				<path class="st3" d="M550.7-120.5h13.8c3.7,0,6.5,0.9,8.4,2.6c1.9,1.7,2.9,4.3,2.9,7.7c0,2.6-0.8,4.8-2.3,6.6
					c-1.5,1.8-3.6,2.9-6.3,3.4l8.4,15.3h-4.1l-8.4-15.1h-8.5v15.1h-4V-120.5z M563.9-103.4c2.4,0,4.4-0.6,5.7-1.7
					c1.4-1.2,2.1-2.9,2.1-5.1c0-2.5-0.7-4.3-2.1-5.3c-1.4-1.1-3.3-1.6-5.8-1.6h-9.2v13.8H563.9z"/>
			</g>
		</g>
	</g>
	<g>
		<g transform="translate(234.479007, 278.660752)">
			<g>
				<path class="st3" d="M588.9-120.5h4.2l11.9,30.1l11.9-30.1h4.2l-14.2,35.6h-3.7L588.9-120.5z"/>
			</g>
		</g>
	</g>
	<g>
		<g transform="translate(258.018366, 278.660752)">
			<g>
				<path class="st3" d="M633.1-120.5h3.9v35.6h-3.9V-120.5z"/>
			</g>
		</g>
	</g>
	<g>
		<g transform="translate(272.384256, 278.660752)">
			<g>
				<path class="st3" d="M677-84.2c-3.6,0-6.8-0.8-9.6-2.3c-2.8-1.5-5.1-3.7-6.7-6.5c-1.6-2.8-2.4-6-2.4-9.7c0-3.7,0.8-7,2.4-9.7
					c1.6-2.8,3.8-5,6.7-6.5c2.8-1.6,6-2.3,9.6-2.3c4.9,0,9,1.3,12.2,3.8v3.9c-3.1-2.7-7.1-4.1-11.9-4.1c-2.9,0-5.4,0.6-7.7,1.8
					c-2.3,1.2-4.1,3-5.4,5.2c-1.3,2.2-1.9,4.9-1.9,7.9c0,3,0.6,5.6,1.9,7.9c1.3,2.2,3.1,4,5.4,5.2c2.3,1.2,4.8,1.8,7.7,1.8
					c2.6,0,4.8-0.3,6.8-1c2-0.7,3.9-1.8,5.6-3.4v3.9C686.6-85.5,682.4-84.2,677-84.2z"/>
			</g>
		</g>
	</g>
	<g>
		<g transform="translate(295.654332, 278.660752)">
			<g>
				<path class="st3" d="M701.9-120.5h22.9v3.4h-18.9v12.7H720v3.3h-14.2v12.8h18.9v3.4h-22.9V-120.5z"/>
			</g>
		</g>
	</g>
	<g>
		<g transform="translate(316.303401, 278.660752)">
			<g>
				<path class="st3" d="M749.1-84.2c-1.9,0-3.9-0.2-5.8-0.5c-1.9-0.3-3.4-0.8-4.7-1.3v-3.8c3.2,1.4,6.6,2.1,10.3,2.1
					c3,0,5.3-0.5,6.7-1.5c1.4-1,2.2-2.5,2.2-4.5c0-1.4-0.3-2.5-0.9-3.3c-0.6-0.8-1.4-1.5-2.6-2.1c-1.1-0.6-3.1-1.4-5.8-2.5
					c-3.4-1.3-5.8-2.8-7.3-4.4c-1.5-1.6-2.3-3.7-2.3-6.1c0-1.8,0.5-3.4,1.4-4.8c1-1.4,2.3-2.5,4.1-3.2c1.8-0.8,3.8-1.1,6.1-1.1
					c1.9,0,3.5,0.2,5,0.4c1.5,0.3,3,0.7,4.5,1.4v3.6c-2.9-1.3-5.8-1.9-8.9-1.9c-2.7,0-4.8,0.5-6.2,1.5c-1.4,1-2.1,2.3-2.1,4.1
					c0,1.2,0.3,2.2,0.8,3.1c0.6,0.9,1.5,1.6,2.7,2.3c1.2,0.7,2.9,1.5,5.1,2.3c2.4,1,4.4,1.8,5.7,2.7c1.4,0.8,2.5,1.9,3.2,3.2
					c0.8,1.3,1.1,2.9,1.1,4.9c0,3-1.1,5.4-3.2,7C756.5-85,753.3-84.2,749.1-84.2z"/>
			</g>
		</g>
	</g>
</g>
</svg>
